<svg xmlns="http://www.w3.org/2000/svg" width="400" height="280" viewBox="0 0 400 280" role="img" aria-label="玻璃拳刃擂台"><title>玻璃拳刃擂台</title><defs><linearGradient id="bg" x2="1" y2="1"><stop stop-color="#203b49"/><stop offset="1" stop-color="#101e2c"/></linearGradient></defs><rect width="400" height="280" rx="22" fill="url(#bg)"/><path d="M27 234L77 85H330L377 234Z" fill="#29434c" stroke="#87d9ed" stroke-opacity=".3" stroke-width="2"/><path d="M51 204H353M63 168H342M74 127H334M141 85L129 234M244 85L271 234" stroke="#6f8c8e" stroke-opacity=".2"/><g transform="translate(98 164)"><ellipse cy="49" rx="43" ry="10" fill="#06121b" opacity=".5"/><path d="M-12 11L-26 47M12 11L30 47" stroke="#87d9ed" stroke-width="13" stroke-linecap="round"/><rect x="-22" y="-28" width="44" height="49" rx="16" fill="#87d9ed"/><circle cy="-45" r="19" fill="#f2ddbc"/><path d="M-17-27L-45-2M17-27L49-16" stroke="#87d9ed" stroke-width="13" stroke-linecap="round"/></g><g transform="translate(305 166)"><ellipse cy="49" rx="43" ry="10" fill="#06121b" opacity=".5"/><path d="M-12 11L-26 47M12 11L30 47" stroke="#e997a4" stroke-width="13" stroke-linecap="round"/><rect x="-22" y="-28" width="44" height="49" rx="16" fill="#e997a4"/><circle cy="-45" r="19" fill="#f2ddbc"/><path d="M-17-27L-45-2M17-27L49-16" stroke="#e997a4" stroke-width="13" stroke-linecap="round"/></g><g fill="#acf6f5" stroke="#edffff" stroke-width="2"><path d="M141 144L190 130L163 164Z"/><path d="M126 207L152 195L142 218Z"/><path d="M196 217L211 190L226 219Z"/><path d="M253 223L264 199L290 216Z"/></g><path d="M161 235Q201 260 242 231" fill="none" stroke="#82dce7" stroke-width="4" stroke-dasharray="8 5"/><rect x="20" y="17" width="5" height="20" rx="2" fill="#87d9ed"/><text x="34" y="33" font-family="system-ui,sans-serif" font-size="15" font-weight="700" letter-spacing="2" fill="#eaf0df">GLASS RECYCLE</text></svg>