<svg xmlns="http://www.w3.org/2000/svg" viewBox="0 0 400 250" role="img" aria-labelledby="title desc"><title id="title">雙棲程式</title><desc id="desc">同一份指令必須讓水中與陸上機器人都完成任務。</desc><defs><linearGradient id="bg" x2="1" y2="1"><stop stop-color="#253d4b"/><stop offset="1" stop-color="#111f2d"/></linearGradient></defs><rect width="400" height="250" rx="18" fill="url(#bg)"/><circle cx="360" cy="8" r="135" fill="#527b71" opacity=".10"/><circle cx="24" cy="233" r="89" fill="#7d6389" opacity=".07"/><rect x="62" y="60" width="130" height="128" rx="8" fill="#294637"/><rect x="208" y="60" width="130" height="128" rx="8" fill="#234c68"/><text x="126" y="85" fill="#baff96" font-family="ui-monospace,monospace" font-size="13" text-anchor="middle">LAND</text><text x="272" y="85" fill="#72d7cf" font-family="ui-monospace,monospace" font-size="13" text-anchor="middle">WATER</text><g transform="translate(126 128)"><rect x="-17" y="-17" width="34" height="31" rx="8" fill="#baff96"/><rect x="-12" y="17" width="9" height="19" rx="3" fill="#baff96"/><rect x="3" y="17" width="9" height="19" rx="3" fill="#baff96"/><circle cx="-7" cy="-3" r="3" fill="#122634"/><circle cx="7" cy="-3" r="3" fill="#122634"/><path d="M0 -18L0 -27" stroke="#baff96" stroke-width="3" fill="none" stroke-linecap="round"/><circle cx="0" cy="-29" r="4" fill="#baff96"/></g><g transform="translate(272 128)"><rect x="-17" y="-17" width="34" height="31" rx="8" fill="#72d7cf"/><rect x="-12" y="17" width="9" height="19" rx="3" fill="#72d7cf"/><rect x="3" y="17" width="9" height="19" rx="3" fill="#72d7cf"/><circle cx="-7" cy="-3" r="3" fill="#122634"/><circle cx="7" cy="-3" r="3" fill="#122634"/><path d="M0 -18L0 -27" stroke="#72d7cf" stroke-width="3" fill="none" stroke-linecap="round"/><circle cx="0" cy="-29" r="4" fill="#72d7cf"/></g><path d="M150 128L179 128" stroke="#f7d47b" stroke-width="4" fill="none" stroke-linecap="round"/><path d="M285 128L327 128" stroke="#f7d47b" stroke-width="4" fill="none" stroke-linecap="round"/><rect x="163" y="199" width="74" height="22" rx="8" fill="#355061"/><text x="200" y="215" fill="#f7d47b" font-family="ui-monospace,monospace" font-size="11" text-anchor="middle">F → 1/2</text></svg>