<svg xmlns="http://www.w3.org/2000/svg" width="640" height="310" viewBox="0 0 640 310" role="img" aria-label="熱脈衝提供能量；容量、酵素與休眠分別改變溢流、活動成本與冷卻期存活。"><rect width="640" height="310" rx="28" fill="#102e33"/><title>熱脈衝提供能量；容量、酵素與休眠分別改變溢流、活動成本與冷卻期存活。</title><path d="M210 285L255 195L280 245L320 150L350 235L385 190L435 285Z" fill="#596674"/><circle cx="280" cy="140" r="17" fill="#ffc573" fill-opacity=".3" stroke="#ffc573" stroke-width="3"/><text x="280" y="145" text-anchor="middle" font-size="15" fill="#dcf8ed"></text><circle cx="314" cy="140" r="17" fill="#ffc573" fill-opacity=".3" stroke="#ffc573" stroke-width="3"/><text x="314" y="145" text-anchor="middle" font-size="15" fill="#dcf8ed"></text><circle cx="348" cy="140" r="17" fill="#ffc573" fill-opacity=".3" stroke="#ffc573" stroke-width="3"/><text x="348" y="145" text-anchor="middle" font-size="15" fill="#dcf8ed"></text><circle cx="280" cy="101" r="17" fill="#ffc573" fill-opacity=".3" stroke="#ffc573" stroke-width="3"/><text x="280" y="106" text-anchor="middle" font-size="15" fill="#dcf8ed"></text><circle cx="314" cy="101" r="17" fill="#ffc573" fill-opacity=".3" stroke="#ffc573" stroke-width="3"/><text x="314" y="106" text-anchor="middle" font-size="15" fill="#dcf8ed"></text><circle cx="348" cy="101" r="17" fill="#ffc573" fill-opacity=".3" stroke="#ffc573" stroke-width="3"/><text x="348" y="106" text-anchor="middle" font-size="15" fill="#dcf8ed"></text><circle cx="280" cy="62" r="17" fill="#ffc573" fill-opacity=".3" stroke="#ffc573" stroke-width="3"/><text x="280" y="67" text-anchor="middle" font-size="15" fill="#dcf8ed"></text><circle cx="314" cy="62" r="17" fill="#ffc573" fill-opacity=".3" stroke="#ffc573" stroke-width="3"/><text x="314" y="67" text-anchor="middle" font-size="15" fill="#dcf8ed"></text><circle cx="125" cy="190" r="50" fill="#a1b9ff" fill-opacity=".3" stroke="#a1b9ff" stroke-width="3"/><text x="125" y="195" text-anchor="middle" font-size="15" fill="#dcf8ed">活動</text><rect x="475" y="55" width="72" height="190" rx="15" fill="#142832" stroke="#76e5b4"/><rect x="480" y="126.66666666666667" width="62" height="113.33333333333333" rx="10" fill="#76e5b4"/><text x="510" y="278" text-anchor="middle" font-size="15" fill="#dcf8ed">8 / 12</text></svg>
