<svg xmlns="http://www.w3.org/2000/svg" viewBox="0 0 640 400" role="img" aria-labelledby="title desc"><title id="title">夜行狼人鎮</title><desc id="desc">白天交換證言，夜晚運用能力，守住小鎮。</desc><defs><radialGradient id="bg"><stop stop-color="#343c58"/><stop offset="1" stop-color="#17263b"/></radialGradient></defs><rect width="640" height="400" rx="24" fill="url(#bg)"/><rect x="20" y="20" width="600" height="360" rx="18" fill="none" stroke="#7b8ca4" stroke-opacity=".24"/><path d="M45 49h63m424 301h63" stroke="#c8b9dc" stroke-width="3" stroke-linecap="round" opacity=".45"/><circle cx="458" cy="95" r="42" fill="#f7d9a1"/><circle cx="476" cy="81" r="36" fill="#1c2843"/><path d="M82 278V193l67-57 67 57v85m12 0V163l83-64 83 64v115m22 0v-67l66-56 65 56v67" fill="#354763" stroke="#99b1c6" stroke-width="5"/><path d="M281 278v-66h61v66m-225-40v-32h22v32m323-3v-31h26v31" fill="#efc888"/><path d="m300 324-43-38 12-45 32 23 32-23 13 45-46 38Z" fill="#171e31" stroke="#c5b4ea" stroke-width="5"/><path d="m278 284 13 5m20 0 13-5" stroke="#efab9c" stroke-width="6"/><path d="M102 314h115m172 0h115" stroke="#67718a" stroke-width="3" stroke-dasharray="8 9"/></svg>
