<svg xmlns="http://www.w3.org/2000/svg" viewBox="0 0 320 210" role="img" aria-label="給未來的辯護書"><title>給未來的辯護書：文件・跨年辯護</title><rect width="320" height="210" rx="18" fill="#172237"/><circle cx="260" cy="20" r="126" fill="#ccaecc" opacity=".08"/><g fill="none" stroke="#ccaecc" stroke-width="3" stroke-linecap="round" stroke-linejoin="round"><path d="M42 35h85v118H42zM198 35h85v118h-85zM57 53h52m-52 16h43m-43 16h47M213 53h51m-51 16h39m-39 16h45M143 62h39v62h-39zM145 66l34 54m0-54-34 54M136 57h53m-53 72h53M128 152l35 24 35-24"/></g><text x="22" y="198" fill="#ccaecc" font-family="sans-serif" font-size="9" letter-spacing="2">CHAPTER 10 / CAUSAL STORIES</text></svg>
